<?xml version="1.0" encoding="utf-8"?>
<!-- Generator: Adobe Illustrator 19.0.0, SVG Export Plug-In . SVG Version: 6.00 Build 0)  -->
<svg version="1.1" id="Layer_1" xmlns="http://www.w3.org/2000/svg" xmlns:xlink="http://www.w3.org/1999/xlink" x="0px" y="0px"
	 viewBox="320 -320 1600 1600" style="enable-background:new 320 -320 1600 1600;" xml:space="preserve">
<style type="text/css">
	.st0{fill:#FFFFFF;}
	.st1{fill:#2FB997;}
	.st2{fill:#3DB3FA;}
</style>
<g id="layer1">
	<path class="st0" d="M754.2,845.8c-0.9-0.9-1.2-30.3-1.2-126.9c0-106.2,0.2-125.8,1.4-126.8c0.9-0.8,5.1-1.1,12.2-0.9l10.9,0.3
		l0.3,115.2L778,822l241.8,0.2l241.7,0.3v12v12l-253,0.3C812.5,846.9,755.1,846.7,754.2,845.8z"/>
	<path class="st0" d="M1037.5,627.4c-10.4-2.5-15.2-4.1-22.5-7.7c-6.9-3.4-10.3-6-18.1-13.7c-6-6-11.1-12.1-13.7-16.5
		c-13.4-22.9-14.1-50.6-1.9-74c3.8-7.2,6.9-10.7,32.1-36.2c15.4-15.5,28.2-28,28.6-27.8c0.4,0.3,0.1,2.8-0.7,5.7
		c-2.3,8.5-2,29.5,0.6,39.2c1.1,4.4,2.1,8.6,2.1,9.4c0,0.9-5.6,7.2-12.4,14.2c-12,12.2-12.5,12.9-14.6,19.9
		c-5.4,17.6,2.4,35.6,18.6,43.1c3.9,1.9,6.7,2.4,13.9,2.4c15.2,0.1,15.3,0,55.3-39.8c18.9-18.8,35.9-36.1,37.7-38.6
		c4.1-5.5,7.5-15.4,7.5-21.5c0-5.8-3.4-15.9-7-20.8c-5.2-7.1-16.8-13.7-24-13.7c-1.6,0-3.1-0.4-3.4-0.8c-0.3-0.5,7-8.3,16.2-17.5
		l16.7-16.7l6.5,3.7c9.2,5.3,21.5,18,26.9,27.7c7.2,12.8,9.4,21.6,9.5,37.6c0,11.4-0.3,14.7-2.3,21c-2.7,8.7-6.5,16.5-11.3,23.2
		c-4.4,6.2-76.5,78.7-83.2,83.8c-6.5,4.9-16.1,9.7-24.6,12.2C1063.7,627.1,1042.3,628.6,1037.5,627.4z"/>
	<path class="st0" d="M1085,540.3c-9.2-5.3-21.5-18-26.9-27.7c-7.2-12.8-9.4-21.6-9.5-37.6c0-11.4,0.3-14.7,2.3-21
		c2.7-8.7,6.5-16.5,11.3-23.2c4.4-6.2,76.5-78.7,83.2-83.8c6.4-4.8,17.1-10.1,25.6-12.6c5-1.4,9.7-1.9,20-1.9
		c15.5,0.1,20.5,1.2,34,7.8c6.9,3.4,10.3,6,18.1,13.7c6,6,11.1,12.1,13.7,16.5c13.4,22.9,14.1,50.6,1.9,74
		c-3.8,7.2-6.9,10.7-32.1,36.2c-15.4,15.5-28.2,28-28.6,27.8c-0.4-0.3-0.1-2.8,0.7-5.7c2.3-8.5,2-29.5-0.6-39.2
		c-1.1-4.4-2.1-8.6-2.1-9.4c0-0.9,5.6-7.2,12.4-14.2c12-12.2,12.5-12.9,14.6-19.9c5.4-17.6-2.4-35.6-18.6-43.1
		c-4-1.9-6.6-2.3-13.9-2.4c-9.6,0-14.5,1.6-21.1,6.6c-1.7,1.2-18.6,18.1-37.6,37.5c-39.1,39.7-39.8,40.7-40.6,54.3
		c-0.5,9.2,1.2,15.4,6.2,22.4c5.5,7.8,9.6,10.1,26.5,15.3c1,0.2-4.3,6.2-14.9,16.8c-9.1,9.1-16.7,16.5-17,16.5
		S1088.5,542.3,1085,540.3z"/>
	<path class="st0" d="M1462.7,368.4c-0.4-0.4-0.7-52.4-0.7-115.6V138l-241.2-0.2l-241.3-0.3v-12v-12H1233h253.5V241v127.5l-11.6,0.3
		C1468.6,368.9,1463.1,368.7,1462.7,368.4z"/>
</g>
<g id="layer2">
	<path class="st1" d="M1257.4,1085.7c-0.2-0.7-0.3-10.7-0.2-22.2l0.3-21l211.7-0.3l211.8-0.2l0.2-443.8l0.3-443.7h22h22v466v466
		l-233.8,0.3C1302.7,1087,1257.8,1086.8,1257.4,1085.7z"/>
	<path class="st2" d="M655.5,943.8c-0.3-0.7-0.4-209.9-0.3-464.8l0.3-463.5H1120h464.5V480v464.5l-464.3,0.3
		C749.3,945,655.8,944.8,655.5,943.8z M1260,834.5V824l-241.7-0.2l-241.8-0.3l-0.3-115.2L776,593h-10.5H755v126v126h252.5H1260
		V834.5z M1061.5,625.5c11.2-2,21.5-6,30.1-11.8c7.9-5.2,79.9-77,85.3-85c18.7-27.6,17.6-64.4-2.8-90.8
		c-5.1-6.6-15.7-15.4-22.4-18.5l-3.8-1.8l-15.4,15.4c-9.9,9.9-15,15.7-14.2,16.1c0.6,0.4,3,1,5.2,1.4c9,1.6,18.3,9,23.6,18.7
		c3.2,6,3.4,6.8,3.4,16.3c0,15.7,0.3,15.3-43.8,59.2c-43.1,42.8-41.7,41.8-57.2,41.8c-8.7,0-10.6-0.3-14.9-2.5
		c-7.3-3.7-12.8-9.1-16.7-16.2c-3.3-6-3.4-6.7-3.4-16.8c0-9.6,0.2-11,2.9-16c1.8-3.4,7.1-9.9,14.3-17.1l11.4-11.6l-2.1-7.4
		c-2.9-9.9-3.7-28.6-1.7-38.8l1.4-7.3l-23.9,23.8c-13.2,13.2-25.9,26.6-28.4,30c-32.5,45-6.7,109,47.8,118.7
		C1047.1,627.3,1051,627.3,1061.5,625.5z M1108.4,527.1l15.8-15.8l-4.7-0.6c-9.8-1.4-21.6-10.2-26.6-19.8c-1-2-2.3-6.6-3-10.2
		c-1.6-8.4,0.5-17.8,5.6-25.2c1.9-2.7,19.5-21.3,39.2-41.1c41.5-41.9,40.1-40.9,55.8-40.9c8.7,0,10.6,0.3,14.9,2.5
		c7.3,3.7,12.8,9.1,16.7,16.2c3.3,6,3.4,6.7,3.4,16.8c0,9.6-0.2,11-2.9,16c-1.8,3.4-7.1,9.9-14.3,17.1l-11.4,11.6l2.1,7.4
		c2.9,9.9,3.7,28.6,1.7,38.8l-1.4,7.3l23.9-23.8c13.2-13.2,25.9-26.6,28.4-30c28.5-39.5,12.6-95.8-32.5-114.4
		c-3.9-1.6-11.7-3.6-17.3-4.6c-8.8-1.5-11.5-1.5-19.2-0.5c-5,0.7-12.4,2.3-16.6,3.7c-15.1,5.1-18.8,8-55.4,44.3
		c-42.1,41.8-47.4,47.8-53.2,59.7c-5.4,11.1-7.6,20.8-7.5,33.9c0.1,21.4,9.5,42.8,24.6,55.8c3.9,3.3,16.2,11.5,17.5,11.6
		C1092.3,543,1099.6,535.9,1108.4,527.1z M1485,241V115h-252.5H980v10.5V136l241.8,0.2l241.7,0.3l0.3,115.3L1464,367h10.5h10.5V241z
		"/>
	<path class="st1" d="M513.5,804.8c-0.3-0.7-0.4-210.5-0.3-466.3l0.3-465h234h234v22v22l-211.7,0.3L558-82l-0.2,443.8l-0.3,443.7
		l-21.8,0.3C518.8,806,513.8,805.8,513.5,804.8z"/>
</g>
</svg>
